<?xml version="1.0" encoding="UTF-8"?>
<!DOCTYPE svg PUBLIC "-//W3C//DTD SVG 1.1//EN" "http://www.w3.org/Graphics/SVG/1.1/DTD/svg11.dtd">
<svg xmlns="http://www.w3.org/2000/svg" version="1.1" width="1165px" height="716px" style="shape-rendering:geometricPrecision; text-rendering:geometricPrecision; image-rendering:optimizeQuality; fill-rule:evenodd; clip-rule:evenodd" xmlns:xlink="http://www.w3.org/1999/xlink">
<g><path style="opacity:1" fill="#d9d8d9" d="M 1039.5,235.5 C 1078,236.499 1116.66,236.832 1155.5,236.5C 1155.5,237.5 1155.5,238.5 1155.5,239.5C 1144.53,305.986 1132.7,372.319 1120,438.5C 1114.66,451.926 1104.83,459.759 1090.5,462C 1066.84,462.5 1043.17,462.667 1019.5,462.5C 1019.67,451.828 1019.5,441.161 1019,430.5C 978.667,468.167 938.333,505.833 898,543.5C 894.051,549.013 891.884,555.179 891.5,562C 892.951,570.253 894.784,578.419 897,586.5C 899.832,598.338 895.665,606.504 884.5,611C 751.167,640.667 617.833,670.333 484.5,700C 477.766,700.829 471.099,700.496 464.5,699C 448.5,690.667 432.5,682.333 416.5,674C 407.231,669.993 398.564,670.993 390.5,677C 386.167,682.667 381.167,687.667 375.5,692C 365.349,696.186 356.015,694.853 347.5,688C 248.785,611.617 149.785,535.617 50.5,460C 43.0246,454.219 38.1913,446.719 36,437.5C 26.6667,408.167 17.3333,378.833 8,349.5C 4.7661,334.79 9.2661,322.957 21.5,314C 120.135,221.699 218.469,129.033 316.5,36C 324.501,30.9995 332.834,30.3328 341.5,34C 359.833,47 378.167,60 396.5,73C 406.111,79.8089 416.445,81.1422 427.5,77C 461.255,53.9152 498.588,41.7485 539.5,40.5C 576.117,40.5423 609.784,50.3756 640.5,70C 650.72,73.1505 660.054,71.4838 668.5,65C 685.201,49.2967 702.201,33.9634 719.5,19C 728.68,14.1675 737.68,14.5008 746.5,20C 807.53,82.029 868.196,144.362 928.5,207C 950.833,207.333 973.167,207.667 995.5,208C 1015.26,209.296 1029.92,218.462 1039.5,235.5 Z"/></g>
<g><path style="opacity:1" fill="#004aad" d="M 875.5,206.5 C 855.5,207.167 835.5,207.833 815.5,208.5C 815.5,284.167 815.5,359.833 815.5,435.5C 840.5,435.5 865.5,435.5 890.5,435.5C 890.5,410.5 890.5,385.5 890.5,360.5C 900.785,360.554 910.285,357.888 919,352.5C 919.5,380.165 919.667,407.831 919.5,435.5C 931.838,435.333 944.171,435.5 956.5,436C 919.973,467.698 883.64,499.532 847.5,531.5C 822.451,552.363 797.784,573.696 773.5,595.5C 760.186,606.477 746.853,617.477 733.5,628.5C 635.204,518.202 536.537,408.202 437.5,298.5C 436.859,297.518 436.193,296.518 435.5,295.5C 450.345,282.256 465.345,269.256 480.5,256.5C 485.208,252.157 489.875,247.824 494.5,243.5C 502.439,237.567 510.105,231.234 517.5,224.5C 528.726,241.079 541.06,256.912 554.5,272C 563.333,273.833 566.833,270.333 565,261.5C 552.178,246.186 540.345,230.186 529.5,213.5C 540.488,204.51 551.155,195.177 561.5,185.5C 566.132,182.202 570.466,178.536 574.5,174.5C 586.913,164.63 598.913,154.296 610.5,143.5C 615.152,140.179 619.485,136.513 623.5,132.5C 626.874,129.49 630.208,126.49 633.5,123.5C 640.295,129.125 646.962,134.958 653.5,141C 661.136,149.637 669.136,157.97 677.5,166C 686.306,167.024 689.639,163.191 687.5,154.5C 674.434,139.769 660.767,125.769 646.5,112.5C 672.461,90.3761 698.295,68.0428 724,45.5C 774.507,99.1991 825.007,152.866 875.5,206.5 Z"/></g>
<g><path style="opacity:1" fill="#fe3131" d="M 414.5,123.5 C 407.563,131.609 400.396,139.609 393,147.5C 386.951,154.548 381.284,161.881 376,169.5C 375.548,177.708 379.381,180.875 387.5,179C 399.922,162.743 413.589,147.576 428.5,133.5C 442.524,144.852 456.858,155.852 471.5,166.5C 471.669,179.863 472.335,193.196 473.5,206.5C 437.74,213.608 402.407,221.942 367.5,231.5C 377.233,364.494 386.899,497.494 396.5,630.5C 390.277,638.59 384.277,646.923 378.5,655.5C 377.998,656.521 377.332,656.688 376.5,656C 272.833,577.667 169.167,499.333 65.5,421C 64.7476,420.329 64.4142,419.496 64.5,418.5C 151.833,299.5 239.167,180.5 326.5,61.5C 326.846,59.6372 327.846,58.8039 329.5,59C 357.71,80.7161 386.043,102.216 414.5,123.5 Z"/></g>
<g><path style="opacity:1" fill="#555555" d="M 646.5,112.5 C 660.767,125.769 674.434,139.769 687.5,154.5C 689.639,163.191 686.306,167.024 677.5,166C 669.136,157.97 661.136,149.637 653.5,141C 646.962,134.958 640.295,129.125 633.5,123.5C 624.012,115.16 614.179,107.16 604,99.5C 606.76,104.983 610.093,110.316 614,115.5C 617.179,121.194 620.345,126.861 623.5,132.5C 619.485,136.513 615.152,140.179 610.5,143.5C 602.419,123.914 590.586,106.914 575,92.5C 577.162,97.98 579.162,103.647 581,109.5C 584.504,131.752 582.337,153.418 574.5,174.5C 570.466,178.536 566.132,182.202 561.5,185.5C 559.708,185.366 558.042,185.699 556.5,186.5C 555.325,186.719 554.325,186.386 553.5,185.5C 560.352,169.801 564.852,153.468 567,136.5C 570.771,109.663 560.271,91.1635 535.5,81C 523.47,81.0974 513.637,85.9307 506,95.5C 493.649,111.887 490.982,129.887 498,149.5C 503.042,166.243 510.208,181.909 519.5,196.5C 522.08,202.668 525.414,208.335 529.5,213.5C 540.345,230.186 552.178,246.186 565,261.5C 566.833,270.333 563.333,273.833 554.5,272C 541.06,256.912 528.726,241.079 517.5,224.5C 512.234,216.297 507.234,207.963 502.5,199.5C 499.847,194.193 497.18,188.86 494.5,183.5C 492.07,178.301 489.903,172.968 488,167.5C 487.501,171.486 487.334,175.486 487.5,179.5C 487.749,187.35 488.416,195.017 489.5,202.5C 490.404,216.258 492.071,229.925 494.5,243.5C 489.875,247.824 485.208,252.157 480.5,256.5C 477.979,239.852 475.645,223.185 473.5,206.5C 472.335,193.196 471.669,179.863 471.5,166.5C 472.202,154.609 473.368,142.609 475,130.5C 477.762,121.359 479.762,112.025 481,102.5C 482.782,97.7707 484.949,93.2707 487.5,89C 485.402,89.0322 483.402,89.6989 481.5,91C 461.624,102.372 443.957,116.539 428.5,133.5C 413.589,147.576 399.922,162.743 387.5,179C 379.381,180.875 375.548,177.708 376,169.5C 381.284,161.881 386.951,154.548 393,147.5C 400.396,139.609 407.563,131.609 414.5,123.5C 423.979,114.859 433.646,106.359 443.5,98C 461.421,83.3696 481.421,72.3696 503.5,65C 512.016,64.2027 520.349,62.536 528.5,60C 545.846,58.5042 562.512,61.1709 578.5,68C 589.948,73.2234 600.948,79.2234 611.5,86C 623.226,94.8512 634.893,103.685 646.5,112.5 Z"/></g>
<g><path style="opacity:1" fill="#555454" d="M 326.5,61.5 C 239.167,180.5 151.833,299.5 64.5,418.5C 54.3756,393.98 44.7089,369.146 35.5,344C 120.833,260.667 206.167,177.333 291.5,94C 303.057,82.9394 314.723,72.1061 326.5,61.5 Z"/></g>
<g><path style="opacity:1" fill="#d8d8d8" d="M 556.5,186.5 C 545.596,188.806 534.596,191.306 523.5,194C 521.68,194.2 520.347,195.034 519.5,196.5C 510.208,181.909 503.042,166.243 498,149.5C 490.982,129.887 493.649,111.887 506,95.5C 513.637,85.9307 523.47,81.0974 535.5,81C 560.271,91.1635 570.771,109.663 567,136.5C 564.852,153.468 560.352,169.801 553.5,185.5C 554.325,186.386 555.325,186.719 556.5,186.5 Z"/></g>
<g><path style="opacity:1" fill="#d7d6d6" d="M 471.5,166.5 C 456.858,155.852 442.524,144.852 428.5,133.5C 443.957,116.539 461.624,102.372 481.5,91C 483.402,89.6989 485.402,89.0322 487.5,89C 484.949,93.2707 482.782,97.7707 481,102.5C 479.762,112.025 477.762,121.359 475,130.5C 473.368,142.609 472.202,154.609 471.5,166.5 Z"/></g>
<g><path style="opacity:1" fill="#d5d5d6" d="M 610.5,143.5 C 598.913,154.296 586.913,164.63 574.5,174.5C 582.337,153.418 584.504,131.752 581,109.5C 579.162,103.647 577.162,97.98 575,92.5C 590.586,106.914 602.419,123.914 610.5,143.5 Z"/></g>
<g><path style="opacity:1" fill="#d2d2d3" d="M 633.5,123.5 C 630.208,126.49 626.874,129.49 623.5,132.5C 620.345,126.861 617.179,121.194 614,115.5C 610.093,110.316 606.76,104.983 604,99.5C 614.179,107.16 624.012,115.16 633.5,123.5 Z"/></g>
<g><path style="opacity:1" fill="#d2cdcd" d="M 494.5,183.5 C 492.15,182.139 489.816,180.806 487.5,179.5C 487.334,175.486 487.501,171.486 488,167.5C 489.903,172.968 492.07,178.301 494.5,183.5 Z"/></g>
<g><path style="opacity:1" fill="#fc3634" d="M 487.5,179.5 C 489.816,180.806 492.15,182.139 494.5,183.5C 497.18,188.86 499.847,194.193 502.5,199.5C 498.014,199.968 493.681,200.968 489.5,202.5C 488.416,195.017 487.749,187.35 487.5,179.5 Z"/></g>
<g><path style="opacity:1" fill="#fafbfc" d="M 561.5,185.5 C 551.155,195.177 540.488,204.51 529.5,213.5C 525.414,208.335 522.08,202.668 519.5,196.5C 520.347,195.034 521.68,194.2 523.5,194C 534.596,191.306 545.596,188.806 556.5,186.5C 558.042,185.699 559.708,185.366 561.5,185.5 Z"/></g>
<g><path style="opacity:1" fill="#fcfbfc" d="M 502.5,199.5 C 507.234,207.963 512.234,216.297 517.5,224.5C 510.105,231.234 502.439,237.567 494.5,243.5C 492.071,229.925 490.404,216.258 489.5,202.5C 493.681,200.968 498.014,199.968 502.5,199.5 Z"/></g>
<g><path style="opacity:1" fill="#fefefe" d="M 473.5,206.5 C 475.645,223.185 477.979,239.852 480.5,256.5C 465.345,269.256 450.345,282.256 435.5,295.5C 436.193,296.518 436.859,297.518 437.5,298.5C 505.406,407.304 573.073,516.304 640.5,625.5C 637.442,627.132 634.109,628.299 630.5,629C 579.667,640.833 528.833,652.667 478,664.5C 477.098,664.257 476.265,663.923 475.5,663.5C 439.787,519.313 403.787,375.313 367.5,231.5C 402.407,221.942 437.74,213.608 473.5,206.5 Z"/></g>
<g><path style="opacity:1" fill="#3f73ba" d="M 875.5,206.5 C 876.289,206.783 876.956,207.283 877.5,208C 856.836,208.5 836.169,208.667 815.5,208.5C 835.5,207.833 855.5,207.167 875.5,206.5 Z"/></g>
<g><path style="opacity:1" fill="#fe0401" d="M 834.5,226.5 C 854.879,226.06 875.212,226.56 895.5,228C 909.734,231.54 918.9,240.374 923,254.5C 927.865,275.9 927.531,297.234 922,318.5C 917.552,332.317 908.052,339.817 893.5,341C 886.174,341.5 878.841,341.666 871.5,341.5C 871.5,366.5 871.5,391.5 871.5,416.5C 859.167,416.5 846.833,416.5 834.5,416.5C 834.5,353.167 834.5,289.833 834.5,226.5 Z"/></g>
<g><path style="opacity:1" fill="#fefefe" d="M 938.5,227.5 C 958.836,227.333 979.169,227.5 999.5,228C 1014.19,231.026 1023.36,239.86 1027,254.5C 1031.65,274.487 1031.65,294.487 1027,314.5C 1024.78,327.714 1017.28,336.214 1004.5,340C 994.879,341.286 985.212,341.786 975.5,341.5C 975.5,366.5 975.5,391.5 975.5,416.5C 963.167,416.5 950.833,416.5 938.5,416.5C 938.5,353.5 938.5,290.5 938.5,227.5 Z"/></g>
<g><path style="opacity:0.285" fill="#f4f4f4" d="M 1039.5,235.5 C 1078.5,235.5 1117.5,235.5 1156.5,235.5C 1156.77,237.099 1156.43,238.432 1155.5,239.5C 1155.5,238.5 1155.5,237.5 1155.5,236.5C 1116.66,236.832 1078,236.499 1039.5,235.5 Z"/></g>
<g><path style="opacity:1" fill="#555454" d="M 367.5,231.5 C 403.787,375.313 439.787,519.313 475.5,663.5C 475.265,664.097 474.765,664.43 474,664.5C 448.759,656.198 423.592,647.698 398.5,639C 396.679,636.544 396.012,633.711 396.5,630.5C 386.899,497.494 377.233,364.494 367.5,231.5 Z"/></g>
<g><path style="opacity:1" fill="#7396c4" d="M 1072.5,255.5 C 1060.12,254.854 1048.12,255.521 1036.5,257.5C 1035.6,256.791 1035.26,255.791 1035.5,254.5C 1048.01,254.171 1060.34,254.505 1072.5,255.5 Z"/></g>
<g><path style="opacity:1" fill="#024aad" d="M 1072.5,255.5 C 1076.17,293.042 1080.01,330.708 1084,368.5C 1088.2,330.831 1092.37,293.164 1096.5,255.5C 1108.84,255.333 1121.17,255.5 1133.5,256C 1123.15,313.103 1112.98,370.269 1103,427.5C 1101.67,434.478 1097.84,439.312 1091.5,442C 1074.22,443.444 1056.89,443.944 1039.5,443.5C 1039.5,435.5 1039.5,427.5 1039.5,419.5C 1046.35,419.824 1053.02,419.491 1059.5,418.5C 1060.12,418.389 1060.62,418.056 1061,417.5C 1053.65,364.079 1045.49,310.745 1036.5,257.5C 1048.12,255.521 1060.12,254.854 1072.5,255.5 Z"/></g>
<g><path style="opacity:1" fill="#dfb3b3" d="M 872.5,261.5 C 872.5,276.5 872.5,291.5 872.5,306.5C 874.167,306.5 875.833,306.5 877.5,306.5C 875.735,307.461 873.735,307.795 871.5,307.5C 871.17,291.991 871.504,276.658 872.5,261.5 Z"/></g>
<g><path style="opacity:1" fill="#d9d7d7" d="M 872.5,261.5 C 880.277,260.342 885.444,263.342 888,270.5C 888.895,280.561 888.562,290.561 887,300.5C 885.189,304.655 882.023,306.655 877.5,306.5C 875.833,306.5 874.167,306.5 872.5,306.5C 872.5,291.5 872.5,276.5 872.5,261.5 Z"/></g>
<g><path style="opacity:1" fill="#d9d9d9" d="M 975.5,261.5 C 983.656,259.989 989.156,262.989 992,270.5C 992.667,279.167 992.667,287.833 992,296.5C 989.87,304.995 984.37,308.661 975.5,307.5C 975.5,292.167 975.5,276.833 975.5,261.5 Z"/></g>
<g><path style="opacity:1" fill="#545455" d="M 437.5,298.5 C 536.537,408.202 635.204,518.202 733.5,628.5C 706.451,633.281 679.284,637.948 652,642.5C 648.144,636.768 644.31,631.101 640.5,625.5C 573.073,516.304 505.406,407.304 437.5,298.5 Z"/></g>
<g><path style="opacity:1" fill="#044bad" d="M 1013.5,356.5 C 1014.87,356.343 1016.21,356.51 1017.5,357C 1021.72,361.928 1026.05,366.761 1030.5,371.5C 1018.84,382.323 1007.01,392.99 995,403.5C 994.5,389.171 994.333,374.837 994.5,360.5C 1001.26,360.546 1007.59,359.213 1013.5,356.5 Z"/></g>
<g><path style="opacity:1" fill="#5280bd" d="M 1059.5,418.5 C 1053.02,419.491 1046.35,419.824 1039.5,419.5C 1039.5,427.5 1039.5,435.5 1039.5,443.5C 1038.51,435.35 1038.17,427.017 1038.5,418.5C 1045.5,418.5 1052.5,418.5 1059.5,418.5 Z"/></g>
<g><path style="opacity:1" fill="#fdfdfe" d="M 847.5,531.5 C 851.703,546.11 855.703,560.777 859.5,575.5C 830.781,581.953 802.114,588.62 773.5,595.5C 797.784,573.696 822.451,552.363 847.5,531.5 Z"/></g>
</svg>
